<svg width="110" height="19" viewBox="0 0 110 19" fill="none" xmlns="http://www.w3.org/2000/svg">
<path d="M7.728 18.168C5.76 18.168 4.144 17.704 2.88 16.776C1.616 15.832 0.936 14.488 0.84 12.744H5.856C5.904 13.336 6.08 13.768 6.384 14.04C6.688 14.312 7.08 14.448 7.56 14.448C7.992 14.448 8.344 14.344 8.616 14.136C8.904 13.912 9.048 13.608 9.048 13.224C9.048 12.728 8.816 12.344 8.352 12.072C7.888 11.8 7.136 11.496 6.096 11.16C4.992 10.792 4.096 10.44 3.408 10.104C2.736 9.752 2.144 9.248 1.632 8.592C1.136 7.92 0.888 7.048 0.888 5.976C0.888 4.888 1.16 3.96 1.704 3.192C2.248 2.408 3 1.816 3.96 1.416C4.92 1.016 6.008 0.816 7.224 0.816C9.192 0.816 10.76 1.28 11.928 2.208C13.112 3.12 13.744 4.408 13.824 6.072L8.712 6.072C8.696 5.56 8.536 5.176 8.232 4.92C7.944 4.664 7.568 4.536 7.104 4.536C6.752 4.536 6.464 4.64 6.24 4.848C6.016 5.056 5.904 5.352 5.904 5.736C5.904 6.056 6.024 6.336 6.264 6.576C6.52 6.8 6.832 7 7.2 7.176C7.568 7.336 8.112 7.544 8.832 7.8C9.904 8.168 10.784 8.536 11.472 8.904C12.176 9.256 12.776 9.76 13.272 10.416C13.784 11.056 14.04 11.872 14.04 12.864C14.04 13.872 13.784 14.776 13.272 15.576C12.776 16.376 12.048 17.008 11.088 17.472C10.144 17.936 9.024 18.168 7.728 18.168ZM22.8508 1.08L22.8508 18H18.1468L18.1468 1.08H22.8508Z" fill="#0F1F43"/>
<path d="M37.8416 7.728V11.64H26.9696V7.728L37.8416 7.728Z" fill="#F05529"/>
<path d="M54.0446 9.312C55.0366 9.536 55.8206 10.032 56.3966 10.8C56.9886 11.552 57.2846 12.416 57.2846 13.392C57.2846 14.832 56.7886 15.96 55.7966 16.776C54.8046 17.592 53.4126 18 51.6206 18H43.2446V1.08H51.3566C53.0846 1.08 54.4366 1.464 55.4126 2.232C56.4046 3 56.9006 4.08 56.9006 5.472C56.9006 6.464 56.6366 7.296 56.1086 7.968C55.5966 8.624 54.9086 9.072 54.0446 9.312ZM47.9486 7.8H50.3246C51.5086 7.8 52.1006 7.312 52.1006 6.336C52.1006 5.328 51.5086 4.824 50.3246 4.824H47.9486V7.8ZM50.6846 14.208C51.8686 14.208 52.4606 13.712 52.4606 12.72C52.4606 12.208 52.3006 11.816 51.9806 11.544C51.6766 11.272 51.2366 11.136 50.6606 11.136H47.9486V14.208H50.6846ZM65.9702 4.848V7.608H71.3702V11.184H65.9702V14.232H72.0902V18H61.2662V1.08L72.0902 1.08V4.848H65.9702ZM89.0786 1.08V4.824L84.5666 4.824V18H79.8626V4.824H75.3986V1.08L89.0786 1.08ZM103.443 15.24H97.443L96.531 18H91.587L97.755 1.08H103.179L109.323 18H104.355L103.443 15.24ZM102.267 11.64L100.443 6.168L98.643 11.64H102.267Z" fill="#FEBF10"/>
</svg>
