<svg width="65" height="65" viewBox="0 0 65 65" fill="none" xmlns="http://www.w3.org/2000/svg">
<g clip-path="url(#clip0_265_3143)">
<path d="M29.1357 59.6997C28.9242 60.5037 28.7655 61.3184 28.6597 62.1436C28.5539 62.9688 28.4798 63.8151 28.4375 64.6826C25.7292 64.3652 23.1478 63.7305 20.6934 62.7783C18.2389 61.8262 15.9644 60.6095 13.8696 59.1284C11.7749 57.6473 9.87061 55.9334 8.15674 53.9868C6.44287 52.0402 4.98291 49.9243 3.77686 47.6392C2.5708 45.354 1.63981 42.9419 0.983887 40.4028C0.327962 37.8638 0 35.2295 0 32.5C0 29.5166 0.380859 26.639 1.14258 23.8672C1.9043 21.0954 2.99398 18.5034 4.41162 16.0913C5.82926 13.6792 7.52197 11.4893 9.48975 9.52148C11.4575 7.55371 13.658 5.861 16.0913 4.44336C18.5246 3.02572 21.106 1.93604 23.8354 1.17432C26.5649 0.412598 29.4531 0.0211589 32.5 0C35.4834 0 38.3504 0.380859 41.1011 1.14258C43.8517 1.9043 46.4437 3.00456 48.877 4.44336C51.3102 5.88216 53.5002 7.57487 55.4468 9.52148C57.3934 11.4681 59.0967 13.6686 60.5566 16.123C62.0166 18.5775 63.1063 21.1589 63.8257 23.8672C64.5451 26.5755 64.9365 29.4531 65 32.5H62.7466C62.4504 32.0133 62.1436 31.5373 61.8262 31.0718C61.5088 30.6063 61.1385 30.1619 60.7153 29.7388C60.5884 27.8979 60.2604 26.11 59.7314 24.375H20.8521C20.6828 25.7292 20.5558 27.0728 20.4712 28.4058C20.3866 29.7388 20.3337 31.1035 20.3125 32.5C20.3125 33.8753 20.3548 35.2295 20.4395 36.5625C20.5241 37.8955 20.6616 39.2497 20.8521 40.625H32.5C32.5 41.3021 32.5529 41.9792 32.6587 42.6562C32.7645 43.3333 32.902 44.0104 33.0713 44.6875H21.5503C21.8042 45.8936 22.1427 47.216 22.5659 48.6548C22.9891 50.0936 23.5181 51.5007 24.1528 52.876C24.7876 54.2513 25.5176 55.542 26.3428 56.748C27.168 57.9541 28.099 58.938 29.1357 59.6997ZM58.1763 20.3125C57.3511 18.5986 56.3778 16.9906 55.2563 15.4883C54.1349 13.986 52.8654 12.6107 51.4478 11.3623C50.0301 10.1139 48.5278 9.00309 46.9409 8.02979C45.354 7.05648 43.6401 6.26302 41.7993 5.64941C42.561 6.70736 43.2381 7.82878 43.8306 9.01367C44.423 10.1986 44.9626 11.4152 45.4492 12.6636C45.9359 13.9119 46.3485 15.1815 46.687 16.4722C47.0256 17.7629 47.3218 19.043 47.5757 20.3125H58.1763ZM32.5 4.0625C31.4421 4.0625 30.4688 4.34814 29.5801 4.91943C28.6914 5.49072 27.8662 6.24186 27.1045 7.17285C26.3428 8.10384 25.6657 9.1512 25.0732 10.3149C24.4808 11.4787 23.9412 12.6742 23.4546 13.9014C22.9679 15.1286 22.5765 16.2923 22.2803 17.3926C21.984 18.4928 21.7407 19.4661 21.5503 20.3125H43.4497C43.2804 19.4873 43.0371 18.514 42.7197 17.3926C42.4023 16.2712 42.0109 15.1074 41.5454 13.9014C41.0799 12.6953 40.5509 11.5104 39.9585 10.3467C39.366 9.18294 38.689 8.125 37.9272 7.17285C37.1655 6.2207 36.3298 5.46956 35.4199 4.91943C34.5101 4.3693 33.5368 4.08366 32.5 4.0625ZM23.2324 5.61768C21.4339 6.23128 19.7201 7.01416 18.0908 7.96631C16.4616 8.91846 14.9487 10.0293 13.5522 11.2988C12.1558 12.5684 10.8862 13.9543 9.74365 15.4565C8.60107 16.9588 7.62777 18.5775 6.82373 20.3125H17.4243C17.6571 19.1488 17.9427 17.911 18.2812 16.5991C18.6198 15.2873 19.043 13.9754 19.5508 12.6636C20.0586 11.3517 20.6087 10.0928 21.2012 8.88672C21.7936 7.68066 22.4707 6.59098 23.2324 5.61768ZM4.0625 32.5C4.0625 35.3141 4.45394 38.0225 5.23682 40.625H16.7578C16.5885 39.2708 16.4616 37.9272 16.377 36.5942C16.2923 35.2612 16.25 33.8965 16.25 32.5C16.25 31.1247 16.2923 29.7705 16.377 28.4375C16.4616 27.1045 16.5885 25.7503 16.7578 24.375H5.23682C4.45394 26.9775 4.0625 29.6859 4.0625 32.5ZM6.76025 44.6875C7.58545 46.4014 8.55876 48.0094 9.68018 49.5117C10.8016 51.014 12.0711 52.3999 13.4888 53.6694C14.9064 54.939 16.4298 56.0392 18.0591 56.9702C19.6883 57.9012 21.4022 58.6947 23.2007 59.3506C22.439 58.2926 21.7619 57.1712 21.1694 55.9863C20.577 54.8014 20.0374 53.5848 19.5508 52.3364C19.0641 51.0881 18.6515 49.8185 18.313 48.5278C17.9744 47.2371 17.6676 45.957 17.3926 44.6875H6.76025ZM55.9229 50.4321C57.2982 51.1304 58.5466 51.9873 59.668 53.0029C60.7894 54.0186 61.7415 55.1611 62.5244 56.4307C63.3073 57.7002 63.9209 59.0544 64.3652 60.4932C64.8096 61.932 65.0212 63.4342 65 65H60.9375C60.9375 63.3284 60.6201 61.7521 59.9854 60.271C59.3506 58.7899 58.4831 57.4992 57.3828 56.3989C56.2826 55.2987 54.9813 54.4206 53.479 53.7646C51.9767 53.1087 50.4004 52.7913 48.75 52.8125C47.0573 52.8125 45.481 53.1299 44.021 53.7646C42.561 54.3994 41.2703 55.2669 40.1489 56.3672C39.0275 57.4674 38.1494 58.7687 37.5146 60.271C36.8799 61.7733 36.5625 63.3496 36.5625 65H32.5C32.5 63.4554 32.7116 61.9637 33.1348 60.5249C33.5579 59.0861 34.161 57.7214 34.9438 56.4307C35.7267 55.14 36.6789 53.9974 37.8003 53.0029C38.9217 52.0085 40.1701 51.1515 41.5454 50.4321C39.9585 49.2896 38.7313 47.8613 37.8638 46.1475C36.9963 44.4336 36.5625 42.5928 36.5625 40.625C36.5625 38.9534 36.8799 37.3771 37.5146 35.896C38.1494 34.4149 39.0169 33.1242 40.1172 32.0239C41.2174 30.9237 42.5081 30.0456 43.9893 29.3896C45.4704 28.7337 47.0573 28.4163 48.75 28.4375C50.4216 28.4375 51.9979 28.7549 53.479 29.3896C54.9601 30.0244 56.2508 30.8919 57.3511 31.9922C58.4513 33.0924 59.3294 34.3937 59.9854 35.896C60.6413 37.3983 60.9587 38.9746 60.9375 40.625C60.9375 42.5716 60.5037 44.4019 59.6362 46.1157C58.7687 47.8296 57.5309 49.2684 55.9229 50.4321ZM48.75 48.75C49.8714 48.75 50.9188 48.5384 51.8921 48.1152C52.8654 47.6921 53.7329 47.1102 54.4946 46.3696C55.2563 45.6291 55.8382 44.7721 56.2402 43.7988C56.6423 42.8255 56.8538 41.7676 56.875 40.625C56.875 39.5036 56.6634 38.4562 56.2402 37.4829C55.8171 36.5096 55.2352 35.6421 54.4946 34.8804C53.7541 34.1187 52.8971 33.5368 51.9238 33.1348C50.9505 32.7327 49.8926 32.5212 48.75 32.5C47.6286 32.5 46.5812 32.7116 45.6079 33.1348C44.6346 33.5579 43.7671 34.1398 43.0054 34.8804C42.2437 35.6209 41.6618 36.4779 41.2598 37.4512C40.8577 38.4245 40.6462 39.4824 40.625 40.625C40.625 41.7464 40.8366 42.7938 41.2598 43.7671C41.6829 44.7404 42.2648 45.6079 43.0054 46.3696C43.7459 47.1313 44.6029 47.7132 45.5762 48.1152C46.5495 48.5173 47.6074 48.7288 48.75 48.75Z" fill="#F05529"/>
</g>
<defs>
<clipPath id="clip0_265_3143">
<rect width="65" height="65" fill="white"/>
</clipPath>
</defs>
</svg>
