<svg width="62" height="50" viewBox="0 0 62 50" fill="none" xmlns="http://www.w3.org/2000/svg">
<g clip-path="url(#clip0_265_3531)">
<path d="M61.247 6.0884C58.9536 7.10451 56.5211 7.77139 54.0302 8.06687C56.6247 6.51184 58.6168 4.0494 59.5548 1.11543C57.0884 2.57896 54.39 3.61016 51.5761 4.16448C49.284 1.72261 46.0187 0.196533 42.4046 0.196533C35.4654 0.196533 29.8393 5.82237 29.8393 12.7611C29.8393 13.7461 29.9505 14.7049 30.1647 15.6248C19.7221 15.1006 10.4637 10.0984 4.26633 2.49653C3.18499 4.35227 2.56537 6.51089 2.56537 8.81328C2.56537 13.1726 4.78379 17.0183 8.15508 19.2717C6.15973 19.2093 4.20827 18.6703 2.4637 17.6999C2.46306 17.7525 2.46282 17.8052 2.46298 17.858C2.46298 23.9458 6.79408 29.0243 12.5419 30.1786C10.6916 30.6817 8.75085 30.7554 6.86776 30.3939C8.46657 35.3858 13.107 39.0183 18.6051 39.12C14.3048 42.4898 8.8869 44.4987 3.0003 44.4987C1.98594 44.4987 0.985944 44.4391 0.00292969 44.3231C5.56346 47.8882 12.168 49.9683 19.2637 49.9683C42.3754 49.9683 55.0135 30.8221 55.0135 14.2183C55.0135 13.6733 55.0013 13.1315 54.9771 12.5927C57.4368 10.8142 59.5599 8.61171 61.247 6.0884Z" fill="#55ACEE"/>
</g>
<defs>
<clipPath id="clip0_265_3531">
<rect width="61.25" height="50" fill="white"/>
</clipPath>
</defs>
</svg>
