<svg width="72" height="50" viewBox="0 0 72 50" fill="none" xmlns="http://www.w3.org/2000/svg">
<g clip-path="url(#clip0_265_3533)">
<path d="M69.5423 7.79861C69.1344 6.29127 68.3388 4.91707 67.2346 3.81286C66.1305 2.70864 64.7563 1.91295 63.249 1.505C57.7307 0 35.5212 0 35.5212 0C35.5212 0 13.3106 0.0455554 7.79232 1.55056C6.28496 1.95853 4.91077 2.75427 3.80661 3.85853C2.70244 4.96279 1.90682 6.33705 1.49898 7.84444C-0.170182 17.6494 -0.817682 32.59 1.54482 42.0028C1.9527 43.5101 2.74833 44.8843 3.8525 45.9885C4.95666 47.0927 6.33082 47.8884 7.83815 48.2964C13.3565 49.8014 35.5665 49.8014 35.5665 49.8014C35.5665 49.8014 57.7762 49.8014 63.2943 48.2964C64.8016 47.8885 66.1759 47.0928 67.2801 45.9886C68.3843 44.8844 69.18 43.5102 69.5879 42.0028C71.3484 32.1839 71.8909 17.2525 69.5423 7.79861Z" fill="#FF0000"/>
<path d="M28.452 35.5723L46.8765 24.9007L28.452 14.229V35.5723Z" fill="white"/>
</g>
<defs>
<clipPath id="clip0_265_3533">
<rect width="71.1146" height="50" fill="white"/>
</clipPath>
</defs>
</svg>
