<svg width="65" height="65" viewBox="0 0 65 65" fill="none" xmlns="http://www.w3.org/2000/svg">
<path d="M18.9584 27.0834C18.4228 27.0834 17.8991 27.2422 17.4537 27.5398C17.0084 27.8374 16.6612 28.2604 16.4562 28.7553C16.2513 29.2501 16.1976 29.7947 16.3021 30.3201C16.4066 30.8454 16.6646 31.328 17.0433 31.7068C17.4221 32.0855 17.9047 32.3435 18.43 32.448C18.9554 32.5525 19.5 32.4988 19.9948 32.2939C20.4897 32.0889 20.9127 31.7417 21.2103 31.2964C21.5079 30.851 21.6667 30.3273 21.6667 29.7917C21.6667 29.0734 21.3814 28.3845 20.8735 27.8766C20.3656 27.3687 19.6767 27.0834 18.9584 27.0834ZM51.4584 16.25H48.7501V8.12502C48.7501 7.40673 48.4647 6.71785 47.9568 6.20994C47.4489 5.70203 46.76 5.41669 46.0418 5.41669H18.9584C18.2401 5.41669 17.5512 5.70203 17.0433 6.20994C16.5354 6.71785 16.2501 7.40673 16.2501 8.12502V16.25H13.5417C11.3869 16.25 9.32024 17.106 7.79651 18.6298C6.27277 20.1535 5.41675 22.2201 5.41675 24.375V40.625C5.41675 42.7799 6.27277 44.8465 7.79651 46.3703C9.32024 47.894 11.3869 48.75 13.5417 48.75H16.2501V56.875C16.2501 57.5933 16.5354 58.2822 17.0433 58.7901C17.5512 59.298 18.2401 59.5834 18.9584 59.5834H46.0418C46.76 59.5834 47.4489 59.298 47.9568 58.7901C48.4647 58.2822 48.7501 57.5933 48.7501 56.875V48.75H51.4584C53.6133 48.75 55.6799 47.894 57.2037 46.3703C58.7274 44.8465 59.5834 42.7799 59.5834 40.625V24.375C59.5834 22.2201 58.7274 20.1535 57.2037 18.6298C55.6799 17.106 53.6133 16.25 51.4584 16.25ZM21.6667 10.8334H43.3334V16.25H21.6667V10.8334ZM43.3334 54.1667H21.6667V43.3334H43.3334V54.1667ZM54.1668 40.625C54.1668 41.3433 53.8814 42.0322 53.3735 42.5401C52.8656 43.048 52.1767 43.3334 51.4584 43.3334H48.7501V40.625C48.7501 39.9067 48.4647 39.2179 47.9568 38.7099C47.4489 38.202 46.76 37.9167 46.0418 37.9167H18.9584C18.2401 37.9167 17.5512 38.202 17.0433 38.7099C16.5354 39.2179 16.2501 39.9067 16.2501 40.625V43.3334H13.5417C12.8235 43.3334 12.1346 43.048 11.6267 42.5401C11.1188 42.0322 10.8334 41.3433 10.8334 40.625V24.375C10.8334 23.6567 11.1188 22.9679 11.6267 22.4599C12.1346 21.952 12.8235 21.6667 13.5417 21.6667H51.4584C52.1767 21.6667 52.8656 21.952 53.3735 22.4599C53.8814 22.9679 54.1668 23.6567 54.1668 24.375V40.625Z" fill="#F05529"/>
</svg>
