<svg width="65" height="65" viewBox="0 0 65 65" fill="none" xmlns="http://www.w3.org/2000/svg">
<path fill-rule="evenodd" clip-rule="evenodd" d="M29.7239 8.13045C29.8825 8.83077 29.7564 9.56539 29.3735 10.1728C28.9906 10.7802 28.3821 11.2107 27.6818 11.3696C27.1504 11.4905 26.6237 11.6315 26.1029 11.7921C25.7631 11.897 25.4059 11.934 25.0518 11.9009C24.6976 11.8678 24.3535 11.7652 24.039 11.5991C23.7245 11.433 23.4458 11.2066 23.2189 10.9328C22.9919 10.6589 22.821 10.3431 22.7161 10.0033C22.6112 9.66342 22.5742 9.30625 22.6074 8.95213C22.6405 8.59801 22.743 8.25388 22.9091 7.93939C23.0752 7.6249 23.3017 7.34621 23.5755 7.11922C23.8493 6.89224 24.1651 6.72141 24.505 6.61649C25.155 6.41427 25.814 6.23822 26.4821 6.08836C26.829 6.00946 27.1881 5.9997 27.5388 6.05964C27.8896 6.11957 28.2251 6.24803 28.5261 6.43768C28.8272 6.62732 29.0879 6.87443 29.2935 7.16488C29.499 7.45533 29.6453 7.78344 29.7239 8.13045ZM35.276 8.13045C35.4349 7.43021 35.8654 6.82174 36.4728 6.4388C37.0802 6.05587 37.8149 5.92982 38.5152 6.08836C50.5781 8.82378 59.586 19.6084 59.586 32.5C59.586 47.4582 47.4581 59.5834 32.5027 59.5834C19.6083 59.5834 8.82372 50.5782 6.08831 38.5152C5.9479 37.8219 6.08438 37.1011 6.46856 36.507C6.85274 35.9129 7.45411 35.4928 8.14407 35.3364C8.83402 35.18 9.55778 35.2998 10.1606 35.6701C10.7633 36.0405 11.1973 36.632 11.3696 37.3182C12.2314 41.0929 14.089 44.5678 16.7491 47.3812C19.4092 50.1946 22.7747 52.2438 26.4953 53.3155C30.2159 54.3873 34.1557 54.4424 37.9048 53.4752C41.654 52.5081 45.0755 50.5539 47.8133 47.8161C50.5512 45.0782 52.5053 41.6568 53.4725 37.9076C54.4397 34.1585 54.3845 30.2186 53.3127 26.498C52.241 22.7774 50.1918 19.412 47.3784 16.7519C44.565 14.0918 41.0901 12.2342 37.3154 11.3723C36.6151 11.2128 36.0068 10.7817 35.6243 10.1737C35.2419 9.56576 35.1166 8.83078 35.276 8.13045ZM17.9129 12.7834C18.1551 13.0441 18.3435 13.3501 18.4674 13.6838C18.5913 14.0174 18.6482 14.3722 18.6349 14.7279C18.6215 15.0836 18.5382 15.4331 18.3897 15.7566C18.2412 16.08 18.0304 16.371 17.7693 16.6129C17.3685 16.9831 16.983 17.3677 16.6129 17.7667C16.1209 18.2786 15.4475 18.5769 14.7378 18.5972C14.0281 18.6176 13.3387 18.3584 12.8182 17.8755C12.2977 17.3926 11.9876 16.7247 11.9547 16.0154C11.9219 15.3061 12.1688 14.6123 12.6425 14.0834C13.1029 13.585 13.5832 13.1038 14.0833 12.6398C14.3441 12.3976 14.6501 12.2092 14.9837 12.0853C15.3174 11.9614 15.6722 11.9045 16.0279 11.9178C16.3835 11.9312 16.7331 12.0145 17.0565 12.163C17.38 12.3115 17.671 12.5223 17.9129 12.7834ZM32.5 16.25C33.2183 16.25 33.9071 16.5354 34.4151 17.0433C34.923 17.5512 35.2083 18.2401 35.2083 18.9584V31.3788L42.5398 38.7102C43.0331 39.221 43.3061 39.9052 43.2999 40.6153C43.2938 41.3254 43.0089 42.0047 42.5068 42.5068C42.0046 43.009 41.3253 43.2938 40.6152 43.3C39.9051 43.3061 39.221 43.0332 38.7102 42.5398L30.5852 34.4148C30.0772 33.907 29.7918 33.2183 29.7916 32.5V18.9584C29.7916 18.2401 30.077 17.5512 30.5849 17.0433C31.0928 16.5354 31.7817 16.25 32.5 16.25ZM10.0018 22.7175C10.6881 22.9292 11.2622 23.4047 11.598 24.0395C11.9337 24.6744 12.0035 25.4166 11.7921 26.1029C11.6314 26.6238 11.4905 27.1505 11.3696 27.6819C11.1973 28.3681 10.7633 28.9596 10.1606 29.3299C9.55778 29.7003 8.83402 29.82 8.14407 29.6637C7.45411 29.5073 6.85274 29.0871 6.46856 28.4931C6.08438 27.899 5.9479 27.1782 6.08831 26.4848C6.23997 25.8168 6.41602 25.1577 6.61643 24.5077C6.82806 23.8215 7.30359 23.2473 7.93845 22.9116C8.57331 22.5759 9.31552 22.5061 10.0018 22.7175Z" fill="#F05529"/>
</svg>
